<svg width="30" height="8" viewBox="0 0 30 8" fill="none" xmlns="http://www.w3.org/2000/svg">
<path d="M3.75 7.5C1.6825 7.5 0 5.8175 0 3.75C0 1.6825 1.6825 0 3.75 0C5.8175 0 7.5 1.6825 7.5 3.75C7.5 5.8175 5.8175 7.5 3.75 7.5ZM3.75 1.25C2.37125 1.25 1.25 2.37125 1.25 3.75C1.25 5.12875 2.37125 6.25 3.75 6.25C5.12875 6.25 6.25 5.12875 6.25 3.75C6.25 2.37125 5.12875 1.25 3.75 1.25Z" fill="white"/>
<path d="M15 7.5C12.9325 7.5 11.25 5.8175 11.25 3.75C11.25 1.6825 12.9325 0 15 0C17.0675 0 18.75 1.6825 18.75 3.75C18.75 5.8175 17.0675 7.5 15 7.5ZM15 1.25C13.6212 1.25 12.5 2.37125 12.5 3.75C12.5 5.12875 13.6212 6.25 15 6.25C16.3787 6.25 17.5 5.12875 17.5 3.75C17.5 2.37125 16.3787 1.25 15 1.25Z" fill="white"/>
<path d="M26.25 7.5C24.1825 7.5 22.5 5.8175 22.5 3.75C22.5 1.6825 24.1825 0 26.25 0C28.3175 0 30 1.6825 30 3.75C30 5.8175 28.3175 7.5 26.25 7.5ZM26.25 1.25C24.8712 1.25 23.75 2.37125 23.75 3.75C23.75 5.12875 24.8712 6.25 26.25 6.25C27.6287 6.25 28.75 5.12875 28.75 3.75C28.75 2.37125 27.6287 1.25 26.25 1.25Z" fill="white"/>
</svg>
