<svg width="30" height="29" viewBox="0 0 30 29" fill="none" xmlns="http://www.w3.org/2000/svg">
<path d="M6.39121 10.7718C4.60151 10.7718 3.14551 12.2278 3.14551 14.0175C3.14551 15.8072 4.60151 17.2632 6.39121 17.2632C8.18092 17.2632 9.63692 15.8072 9.63692 14.0175C9.63692 12.2278 8.18092 10.7718 6.39121 10.7718ZM6.39121 15.4986C5.57457 15.4986 4.9101 14.8342 4.9101 14.0175C4.9101 13.2008 5.57457 12.5364 6.39121 12.5364C7.20786 12.5364 7.87233 13.2008 7.87233 14.0175C7.87233 14.8342 7.20786 15.4986 6.39121 15.4986Z" fill="white"/>
<path d="M12.1382 18.4377C10.3486 18.4377 8.89258 19.8937 8.89258 21.6834C8.89258 23.4731 10.3486 24.9291 12.1382 24.9291C13.9279 24.9291 15.3839 23.4731 15.3839 21.6834C15.3839 19.8937 13.9279 18.4377 12.1382 18.4377ZM12.1382 23.1645C11.3216 23.1645 10.6572 22.5001 10.6572 21.6834C10.6572 20.8666 11.3216 20.2022 12.1382 20.2022C12.9549 20.2022 13.6193 20.8666 13.6193 21.6834C13.6194 22.5001 12.9549 23.1645 12.1382 23.1645Z" fill="white"/>
<path d="M29.1871 18.4096C29.1813 18.4038 29.1754 18.3982 29.1695 18.3925L26.1143 15.5095C27.8245 14.2164 28.5971 11.9274 27.8945 9.80982C24.5823 -0.183292 11.8543 -3.35364 4.27019 4.11583C-1.40986 9.71006 -1.35686 18.7302 4.03231 24.2849C8.87378 29.2749 16.5025 29.9758 22.133 26.2901C24.7697 24.5647 23.5575 20.4576 20.4023 20.4576C18.0458 20.4576 17.6498 17.1629 19.8758 16.5987L25.2583 22.3031C25.264 22.309 25.2696 22.3149 25.2754 22.3207C26.3544 23.4022 28.1071 23.4051 29.189 22.3232C30.2707 21.2415 30.2707 19.4907 29.1871 18.4096ZM17.787 21.1805C18.4959 21.8522 19.4247 22.2222 20.4024 22.2222C21.8115 22.2222 22.3428 24.0441 21.1667 24.8137C16.2387 28.0396 9.54578 27.4336 5.29878 23.0562C0.53537 18.1466 0.563429 10.2675 5.52796 5.38424C12.1805 -1.15941 23.3073 1.57824 26.2197 10.3652C26.7131 11.8525 26.0965 13.4685 24.8031 14.2722L19.9023 9.64759C20.199 8.223 19.788 6.72118 18.7113 5.64453C17.36 4.29312 13.1027 3.61953 11.2577 3.41912C10.6981 3.35818 10.2243 3.83124 10.2852 4.39165C10.4873 6.24383 11.1569 10.4914 12.5107 11.8452C13.5881 12.9225 15.0907 13.3326 16.5141 13.036L18.5785 15.2238C16.3803 16.4171 15.9339 19.4244 17.787 21.1805ZM13.7584 10.5975C13.0935 9.93259 12.4994 7.40383 12.1858 5.31965C14.27 5.63324 16.7988 6.22735 17.4636 6.89224C18.4874 7.916 18.4875 9.57341 17.4636 10.5975C16.4421 11.6191 14.7844 11.6235 13.7584 10.5975ZM27.9413 21.0755C27.5525 21.4643 26.9232 21.4661 26.5321 21.0818C26.0804 20.6031 18.6333 12.7107 18.2184 12.271C18.5665 12.0125 18.8785 11.7005 19.1374 11.352L27.9482 19.6663C28.3328 20.0578 28.3307 20.686 27.9413 21.0755Z" fill="white"/>
</svg>
