<svg width="25" height="31" viewBox="0 0 25 31" fill="none" xmlns="http://www.w3.org/2000/svg">
<path d="M14.6 13.8C14.3 13.8 14 14.1 14 14.4C14 14.7 14.3 15 14.6 15C14.9 15 15.2 14.7 15.2 14.4C15.2 14.1 14.9 13.8 14.6 13.8Z" fill="white"/>
<path d="M14.6004 15.1C14.2004 15.1 13.9004 14.8 13.9004 14.4C13.9004 14 14.2004 13.7 14.6004 13.7C15.0004 13.7 15.3004 14 15.3004 14.4C15.3004 14.8 15.0004 15.1 14.6004 15.1ZM14.6004 13.9C14.3004 13.9 14.1004 14.1 14.1004 14.4C14.1004 14.7 14.3004 14.9 14.6004 14.9C14.9004 14.9 15.1004 14.7 15.1004 14.4C15.1004 14.1 14.9004 13.9 14.6004 13.9Z" fill="white"/>
<path d="M12.1996 10.3C11.8996 10.3 11.5996 10.6 11.5996 10.9C11.5996 11.2 11.8996 11.5 12.1996 11.5C12.4996 11.5 12.7996 11.2 12.7996 10.9C12.7996 10.6 12.5996 10.3 12.1996 10.3Z" fill="white"/>
<path d="M12.2 11.6C11.8 11.6 11.5 11.3 11.5 10.9C11.5 10.5 11.8 10.2 12.2 10.2C12.6 10.2 12.9 10.5 12.9 10.9C12.9 11.3 12.6 11.6 12.2 11.6ZM12.2 10.4C11.9 10.4 11.7 10.6 11.7 10.9C11.7 11.2 11.9 11.4 12.2 11.4C12.5 11.4 12.7 11.2 12.7 10.9C12.7 10.6 12.5 10.4 12.2 10.4Z" fill="white"/>
<path d="M5.19962 25.5C4.89962 25.5 4.59961 25.8 4.59961 26.1C4.59961 26.4 4.89962 26.7 5.19962 26.7C5.49962 26.7 5.79959 26.4 5.79959 26.1C5.79959 25.8 5.49962 25.5 5.19962 25.5Z" fill="white"/>
<path d="M5.20001 26.8C4.80001 26.8 4.5 26.5 4.5 26.1C4.5 25.7 4.80001 25.4 5.20001 25.4C5.60001 25.4 5.89999 25.7 5.89999 26.1C5.89999 26.5 5.60001 26.8 5.20001 26.8ZM5.20001 25.6C4.90001 25.6 4.70001 25.8 4.70001 26.1C4.70001 26.4 4.90001 26.6 5.20001 26.6C5.50001 26.6 5.70001 26.4 5.70001 26.1C5.70001 25.8 5.50001 25.6 5.20001 25.6Z" fill="white"/>
<path d="M23.8998 24.1L16.3998 10.7V3.60001C17.0998 3.40001 17.5998 2.70001 17.5998 1.90001C17.5998 0.900006 16.7998 0.100006 15.7998 0.100006H8.79978C7.79978 0.100006 6.99979 0.900006 6.99979 1.90001C6.99979 2.70001 7.4998 3.30001 8.1998 3.60001V10.7L0.699805 24.1C-0.000195324 25.4 -0.000195324 26.9 0.699805 28.2C1.3998 29.5 2.7998 30.2 4.1998 30.2H20.2998C21.7998 30.2 23.0998 29.4 23.7998 28.2C24.5998 26.9 24.5998 25.4 23.8998 24.1ZM9.1998 11.2C9.1998 11.1 9.29978 11 9.29978 10.9V3.70001H9.89979C10.1998 3.70001 10.4998 3.40001 10.4998 3.10001C10.4998 2.80001 10.1998 2.50001 9.89979 2.50001H8.6998C8.3998 2.50001 8.0998 2.20001 8.0998 1.90001C8.0998 1.60001 8.3998 1.30001 8.6998 1.30001H15.6998C15.9998 1.30001 16.2998 1.60001 16.2998 1.90001C16.2998 2.20001 15.9998 2.50001 15.6998 2.50001H14.4998C14.1998 2.50001 13.8998 2.80001 13.8998 3.10001C13.8998 3.40001 14.1998 3.70001 14.4998 3.70001H15.0998V10.8C15.0998 10.9 15.0998 11 15.1998 11.1L18.6998 17.2C16.5998 17 14.4998 17.5 12.5998 18.5C10.0998 19.8 7.39981 20 4.6998 19.2L9.1998 11.2ZM22.7998 27.6C22.2998 28.5 21.2998 29.1 20.2998 29.1H4.1998C3.0998 29.1 2.1998 28.6 1.6998 27.6C1.1998 26.7 1.1998 25.6 1.6998 24.7L4.1998 20.3C5.39981 20.7 6.69979 20.9 7.89979 20.9C8.09979 20.9 8.29979 20.9 8.49979 20.9C10.0998 20.8 11.6998 20.4 13.1998 19.6C15.1998 18.6 17.3998 18.2 19.4998 18.6L22.8998 24.7C23.3998 25.6 23.3998 26.7 22.7998 27.6Z" fill="white"/>
<path d="M20.3 30.3H4.20001C2.70001 30.3 1.3 29.5 0.6 28.2C-0.2 26.9 -0.2 25.3 0.6 24L8.1 10.6V3.6C7.4 3.3 6.89999 2.6 6.89999 1.9C6.89999 0.9 7.69998 0 8.79998 0H15.8C16.8 0 17.7 0.8 17.7 1.9C17.7 2.7 17.2 3.3 16.5 3.6V10.6L24 24C24.7 25.3 24.7 26.9 24 28.2C23.2 29.5 21.8 30.3 20.3 30.3ZM8.70001 0.3C7.80001 0.3 6.99999 1 6.99999 2C6.99999 2.7 7.4 3.3 8.1 3.6H8.20001V10.8L0.700006 24.2C6.13928e-06 25.5 6.13928e-06 26.9 0.700006 28.2C1.40001 29.4 2.70001 30.2 4.20001 30.2H20.3C21.7 30.2 23 29.5 23.8 28.2C24.5 27 24.5 25.5 23.8 24.2L16.3 10.8V3.5H16.4C17.1 3.3 17.5 2.6 17.5 1.9C17.5 1 16.8 0.2 15.8 0.2H8.70001V0.3ZM20.3 29.1H4.20001C3.10001 29.1 2.1 28.5 1.6 27.6C1.1 26.7 1 25.5 1.6 24.6L4.1 20.1H4.20001C5.60001 20.6 6.99999 20.8 8.39999 20.7C9.99999 20.6 11.6 20.2 13.1 19.4C15.1 18.4 17.3 18 19.5 18.4L22.9 24.5C23.4 25.4 23.4 26.6 22.9 27.5C22.4 28.6 21.4 29.1 20.3 29.1ZM4.20001 20.4L1.79998 24.7C1.29998 25.6 1.29998 26.6 1.79998 27.5C2.29998 28.4 3.20001 28.9 4.20001 28.9H20.3C21.3 28.9 22.2 28.4 22.7 27.5C23.2 26.6 23.2 25.6 22.7 24.7L19.3 18.6C17.2 18.3 15 18.6 13.1 19.6C11.6 20.4 9.99999 20.8 8.39999 20.9C6.99999 21 5.50001 20.8 4.20001 20.4ZM7.79998 19.8C6.69998 19.8 5.7 19.6 4.6 19.3H4.49999L9.1 11.1C9.1 11 9.20001 10.9 9.20001 10.9V3.6H9.89999C10.2 3.6 10.4 3.4 10.4 3.1C10.4 2.8 10.2 2.6 9.89999 2.6H8.70001C8.30001 2.6 7.99999 2.3 7.99999 1.9C7.99999 1.5 8.30001 1.2 8.70001 1.2H15.7C16.1 1.2 16.4 1.5 16.4 1.9C16.4 2.3 16.1 2.6 15.7 2.6H14.5C14.2 2.6 14 2.8 14 3.1C14 3.4 14.2 3.6 14.5 3.6H15.2V10.8C15.2 10.9 15.2 11 15.3 11L18.8 17.3H18.6C16.5 17.1 14.4 17.6 12.5 18.5C11.1 19.4 9.49998 19.8 7.79998 19.8ZM4.89999 19.1C7.39999 19.9 10.2 19.7 12.6 18.4C14.5 17.4 16.5 17 18.6 17.1L15.2 11.1C15.1 11 15.1 10.9 15.1 10.8V3.8H14.6C14.2 3.8 13.9 3.5 13.9 3.1C13.9 2.7 14.2 2.4 14.6 2.4H15.8C16.1 2.4 16.3 2.2 16.3 1.9C16.3 1.6 16.1 1.4 15.8 1.4H8.79998C8.49998 1.4 8.29998 1.6 8.29998 1.9C8.29998 2.2 8.49998 2.4 8.79998 2.4H9.99999C10.4 2.4 10.7 2.7 10.7 3.1C10.7 3.5 10.4 3.8 9.99999 3.8H9.49999V10.8C9.49999 10.9 9.49999 11 9.39999 11.1L4.89999 19.1Z" fill="white"/>
<path d="M9.8996 13.8C8.8996 13.8 8.09961 14.6 8.09961 15.6C8.09961 16.6 8.8996 17.4 9.8996 17.4C10.8996 17.4 11.6996 16.6 11.6996 15.6C11.6996 14.6 10.8996 13.8 9.8996 13.8ZM9.8996 16.1C9.5996 16.1 9.29959 15.8 9.29959 15.5C9.29959 15.2 9.5996 14.9 9.8996 14.9C10.1996 14.9 10.4996 15.2 10.4996 15.5C10.4996 15.8 10.1996 16.1 9.8996 16.1Z" fill="white"/>
<path d="M19.3 25.5H7.60001C7.30001 25.5 7 25.8 7 26.1C7 26.4 7.30001 26.7 7.60001 26.7H19.3C19.6 26.7 19.9 26.4 19.9 26.1C19.9 25.8 19.6 25.5 19.3 25.5Z" fill="white"/>
<path d="M19.3004 26.8H7.6004C7.2004 26.8 6.90039 26.5 6.90039 26.1C6.90039 25.7 7.2004 25.4 7.6004 25.4H19.3004C19.7004 25.4 20.0004 25.7 20.0004 26.1C20.0004 26.5 19.7004 26.8 19.3004 26.8ZM7.6004 25.6C7.3004 25.6 7.1004 25.8 7.1004 26.1C7.1004 26.4 7.3004 26.6 7.6004 26.6H19.3004C19.6004 26.6 19.8004 26.4 19.8004 26.1C19.8004 25.8 19.6004 25.6 19.3004 25.6H7.6004Z" fill="white"/>
</svg>
