<svg width="28" height="31" viewBox="0 0 28 31" fill="none" xmlns="http://www.w3.org/2000/svg">
<path d="M12.4781 14.1C12.2781 13.9 11.8781 13.9 11.5781 14.1C6.27813 19.5 2.67812 23.8 0.178125 29.3C0.0781245 29.6 0.178128 30 0.478128 30.1C0.578128 30.1 0.678123 30.2 0.778123 30.2C0.978123 30.2 1.27813 30.1 1.37813 29.8C3.77813 24.4 7.27813 20.3 12.4781 15C12.6781 14.8 12.6781 14.4 12.4781 14.1Z" fill="white"/>
<path d="M0.778458 30.4C0.678458 30.4 0.578462 30.4 0.478462 30.3C0.0784622 30.1 -0.121539 29.6 0.0784607 29.2C2.57846 23.7 6.17846 19.4 11.4785 14C11.7785 13.7 12.2785 13.7 12.6785 14C12.8785 14.2 12.8785 14.4 12.8785 14.6C12.8785 14.8 12.7785 15 12.6785 15.2C7.47846 20.5 3.97846 24.6 1.57846 30C1.37846 30.2 1.07846 30.4 0.778458 30.4ZM11.9785 14.2C11.8785 14.2 11.7785 14.2 11.6785 14.3C6.37846 19.7 2.77846 23.9 0.378464 29.4C0.278464 29.6 0.378461 29.9 0.578461 30C0.778461 30.1 1.07846 30 1.17846 29.8C3.57846 24.4 7.07846 20.3 12.3785 14.9C12.4785 14.8 12.4785 14.7 12.4785 14.6C12.4785 14.5 12.4785 14.4 12.3785 14.3C12.1785 14.2 12.0785 14.2 11.9785 14.2Z" fill="white"/>
<path d="M26.9781 0.200012C13.5781 0.200012 2.57812 11.1 2.57812 24.6C2.57812 24.9 2.87812 25.2 3.17812 25.2C12.1781 25.2 20.3781 20.3 24.6781 12.4C24.7781 12.2 24.7781 12 24.6781 11.8C24.5781 11.6 24.3781 11.5 24.1781 11.5H21.8781L26.0781 9.10001C26.1781 9.00001 26.2781 8.90001 26.3781 8.80001C27.2781 6.20001 27.6781 3.60001 27.6781 0.900012C27.6781 0.500012 27.3781 0.200012 26.9781 0.200012ZM25.1781 8.10001L19.1781 11.5C18.9781 11.6 18.7781 11.9 18.8781 12.2C18.9781 12.5 19.1781 12.7 19.4781 12.7H23.0781C18.9781 19.5 11.7781 23.7 3.87813 23.9C4.17813 11.7 14.0781 1.70001 26.3781 1.40001C26.2781 3.70001 25.8781 5.90001 25.1781 8.10001Z" fill="white"/>
<path d="M3.27851 25.4C2.77851 25.4 2.47852 25 2.47852 24.6C2.47852 11 13.4785 0 27.0785 0C27.5785 0 27.8785 0.4 27.8785 0.8C27.8785 3.5 27.3785 6.2 26.5785 8.8C26.4785 9 26.3785 9.2 26.1785 9.2L22.6785 11.2H24.2785C24.5785 11.2 24.8785 11.4 24.9785 11.6C25.0785 11.8 25.1785 12.2 24.9785 12.4C20.5785 20.4 12.2785 25.4 3.27851 25.4ZM26.9785 0.4C13.6785 0.4 2.77851 11.2 2.77851 24.6C2.77851 24.8 2.97851 25 3.17851 25C12.0785 25 20.2785 20.1 24.4785 12.3C24.5785 12.2 24.5785 12 24.4785 11.9C24.3785 11.8 24.2785 11.7 24.0785 11.7H20.9785L25.7785 9C25.8785 8.9 25.9785 8.9 25.9785 8.8C26.8785 6.2 27.2785 3.6 27.2785 1C27.4785 0.6 27.2785 0.4 26.9785 0.4ZM3.67851 24.1V23.9C3.97851 11.5 13.9785 1.6 26.3785 1.2H26.5785V1.4C26.4785 3.7 26.0785 5.9 25.3785 8.1V8.2L19.2785 11.7C19.0785 11.8 19.0785 12 19.0785 12.2C19.0785 12.4 19.2785 12.5 19.4785 12.5H23.3785L23.1785 12.8C19.0785 19.7 11.7785 23.9 3.77851 24.1H3.67851ZM26.1785 1.7C14.1785 2.1 4.57851 11.8 4.07851 23.8C11.7785 23.5 18.6785 19.5 22.6785 13H19.4785C19.0785 13 18.7785 12.7 18.6785 12.4C18.5785 12 18.7785 11.7 19.0785 11.5L24.9785 8.1C25.6785 5.9 26.0785 3.8 26.1785 1.7Z" fill="white"/>
</svg>
