<svg width="30" height="30" viewBox="0 0 30 30" fill="none" xmlns="http://www.w3.org/2000/svg">
<path d="M27.3 0H2.7C1.2 0 0 1.2 0 2.7V27.3C0 28.8 1.2 30 2.7 30H27.3C28.8 30 30 28.8 30 27.3V2.7C30 1.2 28.8 0 27.3 0ZM28.2 2.7V14.1H15.9V1.8H27.3C27.8 1.8 28.2 2.2 28.2 2.7ZM2.7 1.8H14.1V14.2H1.8V2.7C1.8 2.2 2.2 1.8 2.7 1.8ZM1.8 27.3V15.9H14.2V28.3H2.7C2.2 28.2 1.8 27.8 1.8 27.3ZM27.3 28.2H15.9V15.9H28.3V27.3C28.2 27.8 27.8 28.2 27.3 28.2Z" fill="white"/>
<path d="M4.49961 8.80001H7.09961V11.4C7.09961 11.9 7.49961 12.3 7.99961 12.3C8.49961 12.3 8.89961 11.9 8.89961 11.4V8.80001H11.4996C11.9996 8.80001 12.3996 8.40001 12.3996 7.90001C12.3996 7.40001 11.9996 7.10001 11.4996 7.10001H8.79961V4.50001C8.79961 4.00001 8.39961 3.60001 7.89961 3.60001C7.39961 3.60001 7.09961 4.00001 7.09961 4.50001V7.10001H4.49961C3.99961 7.10001 3.59961 7.50001 3.59961 8.00001C3.59961 8.50001 3.99961 8.80001 4.49961 8.80001Z" fill="white"/>
<path d="M18.4996 8.80001H25.4996C25.9996 8.80001 26.3996 8.40001 26.3996 7.90001C26.3996 7.40001 25.9996 7.10001 25.4996 7.10001H18.4996C17.9996 7.10001 17.5996 7.50001 17.5996 8.00001C17.5996 8.50001 17.9996 8.80001 18.4996 8.80001Z" fill="white"/>
<path d="M11.4996 21.2H4.49961C3.99961 21.2 3.59961 21.6 3.59961 22.1C3.59961 22.6 3.99961 23 4.49961 23H11.4996C11.9996 23 12.3996 22.6 12.3996 22.1C12.3996 21.6 11.9996 21.2 11.4996 21.2Z" fill="white"/>
<path d="M25.8002 18.3C25.5002 18 24.9002 18 24.6002 18.3L22.0002 20.8L19.5002 18.3C19.2002 18 18.6002 18 18.3002 18.3C18.0002 18.6 18.0002 19.2 18.3002 19.5L20.8002 22L18.3002 24.5C18.0002 24.8 18.0002 25.4 18.3002 25.7C18.6002 26 19.2002 26 19.5002 25.7L22.0002 23.2L24.5002 25.7C24.8002 26 25.4002 26 25.7002 25.7C26.0002 25.4 26.0002 24.8 25.7002 24.5L23.2002 22L25.7002 19.5C26.1002 19.2 26.1002 18.6 25.8002 18.3Z" fill="white"/>
<path d="M8.8 18.5C8.8 19 8.4 19.4 7.9 19.4C7.4 19.4 7 19 7 18.5C7 18 7.4 17.6 7.9 17.6C8.4 17.6 8.8 18 8.8 18.5Z" fill="white"/>
<path d="M8.8 25.5C8.8 26 8.4 26.4 7.9 26.4C7.4 26.4 7 26 7 25.5C7 25 7.4 24.6 7.9 24.6C8.4 24.6 8.8 25.1 8.8 25.5Z" fill="white"/>
</svg>
