<svg width="30" height="30" viewBox="0 0 30 30" fill="none" xmlns="http://www.w3.org/2000/svg">
<path d="M26.7857 0H3.21428C1.43908 0 0 1.43908 0 3.21428V20.3571C0 22.1323 1.43908 23.5714 3.21428 23.5714H7.01787L6.43503 28.8107C6.37006 29.3989 6.79419 29.9283 7.38237 29.9933C7.68609 30.0268 7.98969 29.9291 8.21683 29.7246L15.0546 23.5714H26.7857C28.5609 23.5714 30 22.1323 30 20.3571V3.21428C30 1.43908 28.5609 0 26.7857 0ZM27.8571 20.3571C27.8571 20.9489 27.3774 21.4286 26.7857 21.4286H14.6432C14.3785 21.4287 14.1231 21.5268 13.9264 21.7039L8.87569 26.25L9.27961 22.6189C9.34528 22.0309 8.92183 21.5009 8.33372 21.4352C8.29417 21.4308 8.25443 21.4285 8.21463 21.4286H3.21428C2.62253 21.4286 2.14283 20.9489 2.14283 20.3571V3.21428C2.14283 2.62253 2.62253 2.14283 3.21428 2.14283H26.7857C27.3775 2.14283 27.8572 2.62253 27.8572 3.21428V20.3571H27.8571Z" fill="#8C98AE"/>
</svg>
