<svg width="28" height="30" viewBox="0 0 28 30" fill="none" xmlns="http://www.w3.org/2000/svg">
<path d="M13.5201 0C11.3197 0 9.5293 1.79039 9.5293 3.99082V5.19492H11.5935V3.99082C11.5935 2.92846 12.458 2.0642 13.5201 2.0642C14.5825 2.0642 15.4471 2.9284 15.4471 3.99082V5.19492H17.5113V3.99082C17.5113 1.79039 15.7206 0 13.5201 0Z" fill="#8C98AE"/>
<path d="M16.3412 25.1487C16.3412 26.6855 15.091 27.9358 13.5545 27.9358H13.4857C11.9492 27.9358 10.699 26.6855 10.699 25.1487H8.63477C8.63477 27.824 10.8108 30 13.4857 30H13.5545C16.2293 30 18.4054 27.824 18.4054 25.1487H16.3412Z" fill="#8C98AE"/>
<path d="M26.8771 24.7631L23.9449 20.2015V14.3463C23.9449 8.54138 19.2684 3.81879 13.5206 3.81879C7.77242 3.81879 3.09629 8.54138 3.09629 14.3463V20.2015L0.164082 24.7627C-0.0402926 25.0802 -0.0547067 25.4842 0.126231 25.8155C0.307168 26.1468 0.654336 26.3532 1.03209 26.3532H26.0091C26.3869 26.3532 26.734 26.1468 26.9146 25.8158C27.0959 25.4845 27.0815 25.0806 26.8771 24.7631ZM2.9225 24.289L4.99637 21.0626C5.10336 20.8965 5.16049 20.7024 5.16049 20.5046V14.3463C5.16049 9.6798 8.91084 5.88304 13.5206 5.88304C18.1307 5.88304 21.8807 9.67986 21.8807 14.3463V20.5046C21.8807 20.7024 21.9375 20.8961 22.0445 21.0626L24.1183 24.289H2.9225Z" fill="#8C98AE"/>
</svg>
