<svg width="27" height="31" viewBox="0 0 27 31" fill="none" xmlns="http://www.w3.org/2000/svg">
<path d="M24.4 16.7C23.9 16.2 23.4 15.6 22.8 15.1C23.4 14.6 23.9 14 24.4 13.5C25.4 12.4 26 11.3 26.4 10.4C26.8 9.3 26.8 8.4 26.4 7.6C26 6.8 25.2 6.4 24 6.2C23 6 21.8 6.1 20.3 6.4C19.6 6.5 18.9 6.7 18.1 6.9C17.9 6.2 17.8 5.5 17.5 4.9C17.8 4.6 18 4.2 18 3.7C18 2.8 17.2 2 16.3 2C16.2 2 16.2 2 16.1 2C16 1.8 15.8 1.6 15.7 1.4C15 0.5 14.1 0 13.3 0C12.5 0 11.6 0.5 10.9 1.4C10.3 2.2 9.70001 3.3 9.20001 4.7C9.00001 5.4 8.8 6.1 8.6 6.8C7.9 6.6 7.10001 6.4 6.40001 6.3C5.00001 6 3.70001 6 2.70001 6.1C1.50001 6.3 0.7 6.8 0.3 7.5C-0.1 8.3 -0.1 9.2 0.3 10.3C0.7 11.2 1.3 12.3 2.3 13.4C2.8 13.9 3.30001 14.5 3.90001 15C3.60001 15.3 3.20001 15.6 2.90001 16C2.70001 16 2.60001 15.9 2.40001 15.9C1.50001 15.9 0.700009 16.7 0.700009 17.6C0.700009 17.9 0.800006 18.2 0.900006 18.5C0.600006 18.9 0.4 19.4 0.3 19.8C-0.1 20.9 -0.1 21.8 0.3 22.6C0.7 23.4 1.50001 23.8 2.70001 24C3.10001 24.1 3.50001 24.1 3.90001 24.1C4.60001 24.1 5.50001 24 6.40001 23.8C7.10001 23.7 7.8 23.5 8.6 23.3C8.8 24.1 9.00001 24.8 9.20001 25.4C9.70001 26.8 10.3 27.9 10.9 28.7C11.6 29.6 12.5 30.1 13.3 30.1C14.1 30.1 15 29.6 15.7 28.7C16.3 27.9 16.9 26.8 17.4 25.4C17.6 24.7 17.8 24 18 23.3C18.7 23.5 19.3 23.7 19.9 23.8C20.1 24.5 20.7 25.1 21.5 25.1C22.2 25.1 22.8 24.7 23 24.1C23.3 24.1 23.5 24.1 23.8 24C25 23.8 25.8 23.3 26.2 22.6C26.6 21.9 26.6 20.9 26.2 19.8C26 18.9 25.4 17.8 24.4 16.7ZM20.5 7.6C23 7.1 24.7 7.4 25.2 8.2C25.7 9.1 25 10.7 23.4 12.6C22.9 13.1 22.4 13.7 21.9 14.2C21 13.4 20 12.6 18.9 11.9C18.8 10.6 18.6 9.3 18.4 8.1C19.1 7.9 19.8 7.7 20.5 7.6ZM15.5 18.9C14.8 19.3 14.1 19.7 13.3 20.1C12.6 19.7 11.9 19.3 11.1 18.9C10.3 18.5 9.7 18 9 17.6C9 16.8 8.90001 16 8.90001 15.1C8.90001 14.3 8.9 13.4 9 12.6C9.7 12.2 10.4 11.7 11.1 11.3C11.8 10.9 12.5 10.5 13.3 10.1C14 10.5 14.7 10.9 15.5 11.3C16.3 11.7 16.9 12.2 17.6 12.6C17.6 13.4 17.7 14.2 17.7 15.1C17.7 15.9 17.7 16.8 17.6 17.6C17 18 16.3 18.4 15.5 18.9ZM17.5 19.2C17.4 20.1 17.3 20.9 17.1 21.7C16.3 21.4 15.6 21.1 14.8 20.8C15.3 20.6 15.7 20.3 16.2 20C16.6 19.7 17.1 19.4 17.5 19.2ZM11.9 20.7C11.1 21.1 10.3 21.4 9.6 21.6C9.5 20.8 9.30001 20 9.20001 19.1C9.60001 19.4 10.1 19.6 10.5 19.9C11 20.2 11.5 20.5 11.9 20.7ZM7.8 16.7C7.1 16.2 6.4 15.7 5.8 15.1C6.4 14.6 7.1 14.1 7.8 13.5C7.8 14 7.8 14.5 7.8 15.1C7.7 15.6 7.8 16.1 7.8 16.7ZM9.20001 11C9.30001 10.1 9.4 9.3 9.6 8.5C10.4 8.8 11.1 9.1 11.9 9.4C11.4 9.6 11 9.9 10.5 10.2C10.1 10.5 9.70001 10.8 9.20001 11ZM14.8 9.5C15.6 9.1 16.4 8.8 17.1 8.6C17.2 9.4 17.4 10.2 17.5 11.1C17.1 10.8 16.6 10.6 16.2 10.3C15.7 10 15.3 9.7 14.8 9.5ZM19 13.6C19.7 14.1 20.4 14.6 21 15.2C20.4 15.7 19.7 16.2 19 16.8C19 16.3 19 15.8 19 15.2C19 14.6 19 14.1 19 13.6ZM10.4 5.2C11.2 2.8 12.3 1.4 13.3 1.4C13.9 1.4 14.5 1.9 15 2.7C14.8 3 14.6 3.4 14.6 3.8C14.6 4.7 15.3 5.5 16.2 5.5C16.4 6.1 16.6 6.7 16.7 7.4C15.6 7.8 14.4 8.3 13.2 8.9C12 8.3 10.8 7.8 9.70001 7.4C10 6.5 10.2 5.8 10.4 5.2ZM3.3 12.7C1.7 10.8 0.999997 9.2 1.5 8.3C1.8 7.7 2.7 7.4 4 7.4C4.7 7.4 5.40001 7.5 6.20001 7.6C6.90001 7.7 7.6 7.9 8.3 8.1C8.1 9.3 7.9 10.6 7.8 11.9C6.7 12.7 5.7 13.4 4.8 14.2C4.3 13.7 3.7 13.2 3.3 12.7ZM6.20001 22.6C3.70001 23.1 2 22.8 1.5 22C1.2 21.4 1.4 20.5 2 19.3C2.1 19.3 2.30001 19.4 2.40001 19.4C3.30001 19.4 4.1 18.6 4.1 17.7C4.1 17.4 4.00001 17.1 3.90001 16.9C4.20001 16.6 4.5 16.3 4.8 16C5.7 16.8 6.7 17.6 7.8 18.3C7.9 19.6 8.1 20.9 8.3 22.1C7.6 22.3 6.90001 22.5 6.20001 22.6ZM16.3 25C15.5 27.4 14.4 28.8 13.4 28.8C12.4 28.8 11.3 27.4 10.5 25C10.3 24.3 10.1 23.6 9.90001 22.9C11 22.5 12.2 22 13.4 21.4C14.6 22 15.8 22.5 16.9 22.9C16.7 23.7 16.5 24.4 16.3 25ZM25.3 22C25 22.5 24.3 22.8 23.3 22.9C23.1 22.3 22.4 21.8 21.7 21.8C21.1 21.8 20.6 22.1 20.3 22.6C19.7 22.5 19.1 22.3 18.4 22.1C18.6 20.9 18.8 19.6 18.9 18.3C20 17.5 21 16.8 21.9 16C22.5 16.5 23 17.1 23.4 17.6C25.1 19.4 25.8 21.1 25.3 22Z" fill="white"/>
<path d="M13.3998 12.5C11.8998 12.5 10.7998 13.7 10.7998 15.1C10.7998 16.6 11.9998 17.7 13.3998 17.7C14.8998 17.7 15.9998 16.5 15.9998 15.1C15.9998 13.7 14.7998 12.5 13.3998 12.5ZM13.3998 16.5C12.5998 16.5 11.9998 15.9 11.9998 15.1C11.9998 14.3 12.5998 13.7 13.3998 13.7C14.1998 13.7 14.7998 14.3 14.7998 15.1C14.7998 15.9 14.0998 16.5 13.3998 16.5Z" fill="white"/>
</svg>
