<svg width="30" height="25" viewBox="0 0 30 25" fill="none" xmlns="http://www.w3.org/2000/svg">
<path d="M29.1483 4.37297C29.0919 4.37103 27.9332 4.33191 26.2324 4.3695V0.882333C26.2324 0.368276 25.7935 -0.0394283 25.2767 0.00304216C21.8854 0.286159 17.5708 1.78468 14.9999 4.51791C12.4291 1.78468 8.1145 0.286159 4.72322 0.00304216C4.20734 -0.0389577 3.76746 0.366923 3.76746 0.882333V4.46379C2.80111 4.42732 1.88705 4.40161 0.908526 4.37285C0.414998 4.35726 0 4.75479 0 5.25479V21.3235C0 21.7879 0.359822 22.1728 0.823114 22.2039C4.33298 22.4401 10.2123 22.4667 14.6538 24.3611C15.0496 24.5301 15.405 24.3359 15.3462 24.3611C19.7876 22.4668 25.6658 22.4402 29.1769 22.2039C29.6401 22.1728 30 21.7879 30 21.3235V5.25479C29.9999 4.77944 29.6234 4.38955 29.1483 4.37297ZM24.4677 1.87474V16.9975C21.9233 17.5667 18.6986 18.7813 15.8823 21.3566C15.8823 20.5798 15.8823 6.6099 15.8823 6.18978C17.8129 3.78097 21.4691 2.32909 24.4677 1.87474ZM5.53215 1.87474C8.53079 2.32909 12.187 3.78097 14.1176 6.18978V21.3566C11.3012 18.7813 8.07662 17.5667 5.53215 16.9975V1.87474ZM1.7647 20.4933V6.16349C2.39652 6.18219 3.07228 6.20331 3.76746 6.22984V17.7167C3.76746 18.1412 4.06981 18.5056 4.48704 18.5839C6.5018 18.962 9.12179 19.7828 11.5637 21.5503C8.07985 20.7689 4.43328 20.6433 1.7647 20.4933ZM28.2352 20.4933C25.571 20.6431 21.9214 20.7685 18.4362 21.5503C20.878 19.7828 23.4981 18.962 25.5128 18.5839C25.93 18.5056 26.2324 18.1412 26.2324 17.7167V6.13478C27.0445 6.11661 27.7362 6.11637 28.2351 6.1209V20.4933H28.2352Z" fill="white"/>
<path d="M11.8301 8.2223C11.1467 7.74619 9.96851 7.16178 8.71116 6.94931C8.23087 6.86778 7.77534 7.19184 7.69411 7.67231C7.61293 8.15278 7.93664 8.60813 8.41717 8.6893C9.38793 8.85336 10.319 9.32024 10.8213 9.67024C11.221 9.94871 11.771 9.85059 12.0497 9.45065C12.3282 9.05083 12.2299 8.50083 11.8301 8.2223Z" fill="white"/>
<path d="M11.7417 13.1911C11.113 12.8072 9.88316 12.1334 8.71116 11.9353C8.23087 11.8539 7.77534 12.1778 7.69411 12.6583C7.61293 13.1389 7.93664 13.5942 8.41717 13.6753C9.33016 13.8296 10.403 14.4413 10.8219 14.6972C11.2383 14.9513 11.7812 14.8195 12.0349 14.404C12.2889 13.9882 12.1576 13.4452 11.7417 13.1911Z" fill="white"/>
<path d="M19.1788 9.67024C19.6811 9.32024 20.6122 8.85336 21.5829 8.6893C22.0634 8.60813 22.3871 8.15278 22.306 7.67231C22.2248 7.19178 21.7693 6.8676 21.2889 6.94931C20.0316 7.16172 18.8534 7.74619 18.17 8.2223C17.7702 8.50083 17.6719 9.05083 17.9504 9.45065C18.2291 9.85071 18.7793 9.94859 19.1788 9.67024Z" fill="white"/>
<path d="M21.2891 11.9354C20.1171 12.1334 18.8873 12.8072 18.2585 13.1912C17.8426 13.4452 17.7114 13.9882 17.9654 14.4041C18.2194 14.8199 18.7624 14.9512 19.1783 14.6972C19.5972 14.4413 20.6701 13.8297 21.5831 13.6754C22.0636 13.5942 22.3873 13.1389 22.3061 12.6584C22.2249 12.1779 21.7694 11.8537 21.2891 11.9354Z" fill="white"/>
</svg>
