<svg width="20" height="18" viewBox="0 0 30 27" fill="none" xmlns="http://www.w3.org/2000/svg">
    <path d="M27.6201 2.6423C26.0671 0.93842 23.9362 0 21.6195 0C19.8878 0 18.3018 0.553837 16.9057 1.646C16.2012 2.19729 15.5628 2.87175 15 3.65898C14.4374 2.87199 13.7988 2.19729 13.0941 1.646C11.6982 0.553837 10.1122 0 8.38051 0C6.06377 0 3.93265 0.93842 2.37968 2.6423C0.845261 4.32627 0 6.62682 0 9.12048C0 11.6871 0.945511 14.0365 2.97546 16.5144C4.79141 18.7309 7.40135 20.981 10.4237 23.5864C11.4558 24.4762 12.6256 25.4848 13.8403 26.5592C14.1611 26.8435 14.5729 27 15 27C15.4269 27 15.8389 26.8435 16.1593 26.5596C17.374 25.4851 18.5445 24.476 19.577 23.5858C22.5989 20.9807 25.2088 18.7309 27.0248 16.5142C29.0547 14.0365 30 11.6871 30 9.12024C30 6.62682 29.1547 4.32627 27.6201 2.6423Z"
          fill="#8C98AE"/>
</svg>
